<?xml version="1.0" standalone="no"?>
<!DOCTYPE svg PUBLIC "-//W3C//DTD SVG 20010904//EN"
 "http://www.w3.org/TR/2001/REC-SVG-20010904/DTD/svg10.dtd">
<svg version="1.0" xmlns="http://www.w3.org/2000/svg"
 width="571.000000pt" height="571.000000pt" viewBox="0 0 571.000000 571.000000"
 preserveAspectRatio="xMidYMid meet">
<metadata>
Created by potrace 1.14, written by Peter Selinger 2001-2017
</metadata>
<g transform="translate(0.000000,571.000000) scale(0.100000,-0.100000)"
fill="#000000" stroke="none">
<path d="M548 5705 c-2 -2 -25 -5 -53 -9 -104 -12 -244 -85 -320 -167 -89 -97
-146 -233 -149 -362 -2 -65 1 -92 20 -177 12 -57 80 -173 134 -229 106 -109
225 -161 380 -167 109 -4 182 11 277 58 l61 31 120 -119 120 -120 -20 -24
c-11 -14 -34 -41 -51 -60 -169 -187 -346 -498 -435 -766 -35 -102 -96 -344
-89 -351 4 -3 434 -7 524 -4 17 1 23 11 34 54 36 154 143 396 237 538 50 76
170 229 179 229 2 0 98 -94 212 -208 l208 -209 64 61 c86 81 113 104 182 149
287 190 645 249 987 163 36 -9 76 -22 90 -28 14 -6 34 -14 45 -18 11 -3 62
-28 114 -54 l94 -48 99 99 c54 53 98 101 98 105 0 12 -75 57 -190 114 -106 53
-250 103 -350 123 -30 6 -68 13 -85 17 -16 3 -106 8 -200 9 -151 3 -254 -6
-350 -28 -124 -30 -201 -55 -292 -97 -24 -11 -45 -20 -47 -20 -21 0 -263 -157
-304 -197 -7 -7 -15 -13 -17 -13 -2 0 -192 188 -422 418 l-418 418 41 81 c22
44 41 87 41 94 0 8 5 33 11 57 5 23 8 79 7 125 -11 286 -238 513 -532 530 -29
2 -54 3 -55 2z m159 -115 c143 -46 253 -151 308 -295 23 -60 30 -163 15 -237
-70 -357 -515 -494 -770 -238 -299 301 -76 803 347 784 35 -1 80 -8 100 -14z"/>
<path d="M5008 5615 c-2 -2 -23 -5 -48 -8 -49 -6 -128 -31 -175 -55 -37 -19
-125 -85 -145 -109 -110 -133 -151 -238 -152 -393 -1 -89 24 -179 73 -268 l30
-53 -76 -76 c-69 -69 -77 -74 -93 -61 -200 172 -331 258 -557 367 -185 90
-448 174 -615 196 -25 3 -52 8 -60 10 -97 25 -515 25 -660 1 -14 -3 -42 -7
-62 -10 -195 -29 -503 -130 -673 -219 -87 -46 -244 -144 -322 -200 l-82 -60
189 -188 c103 -104 191 -189 194 -189 4 0 37 20 74 44 113 72 124 79 207 119
133 65 294 122 400 143 11 2 43 8 70 14 54 10 129 21 185 26 54 4 250 4 295
-1 103 -11 145 -16 166 -21 13 -2 46 -9 73 -14 55 -11 180 -46 211 -59 11 -5
47 -19 80 -32 146 -56 365 -185 478 -283 l46 -39 -211 -210 -210 -210 49 -47
c118 -113 189 -208 259 -349 41 -82 87 -207 97 -261 3 -14 10 -54 17 -90 7
-36 13 -110 14 -165 2 -90 -1 -129 -20 -260 -12 -89 -98 -311 -155 -402 -11
-19 -4 -29 89 -123 56 -57 104 -101 105 -99 54 66 147 251 190 379 51 150 70
271 71 455 1 225 -13 319 -76 515 -33 102 -140 312 -195 380 -7 8 -33 42 -58
75 l-46 59 377 377 377 377 26 -19 c53 -39 170 -72 264 -74 165 -5 297 46 408
155 81 80 123 154 150 261 17 64 20 101 16 163 -7 112 -12 130 -57 221 -68
138 -180 235 -324 281 -66 20 -197 39 -208 29z m177 -120 c118 -40 219 -128
270 -233 28 -56 31 -66 44 -144 27 -162 -60 -352 -204 -443 -119 -75 -239 -95
-370 -60 -231 62 -379 300 -330 535 36 171 182 321 351 358 59 13 183 7 239
-13z"/>
<path d="M4489 4142 c-96 -97 -178 -182 -182 -188 -4 -7 19 -50 50 -95 141
-209 260 -506 289 -724 3 -27 10 -72 14 -100 10 -62 11 -326 1 -380 -14 -80
-32 -75 265 -74 190 1 264 4 265 13 1 6 3 115 4 241 2 208 -7 352 -30 445 -3
14 -7 36 -10 50 -6 44 -52 202 -83 290 -72 206 -166 388 -291 565 -88 124 -96
135 -107 134 -5 0 -88 -80 -185 -177z"/>
<path d="M1574 3623 c-89 -149 -170 -353 -188 -477 -4 -21 -8 -41 -10 -45 -9
-15 -19 -146 -20 -256 0 -110 6 -200 19 -265 3 -14 7 -37 10 -53 13 -70 57
-210 91 -287 45 -104 138 -260 200 -336 19 -23 34 -44 34 -48 0 -4 -182 -190
-406 -413 l-405 -405 -77 35 c-96 44 -163 57 -272 53 -281 -11 -512 -242 -524
-526 -14 -316 237 -583 548 -582 161 0 287 52 401 166 114 114 166 246 160
406 -5 108 -18 159 -68 253 l-31 58 110 109 109 109 48 -44 c26 -25 65 -57 85
-72 20 -16 43 -34 50 -41 28 -25 240 -161 316 -201 181 -96 448 -193 621 -225
44 -9 155 -27 190 -31 125 -17 356 -22 480 -10 106 9 161 15 185 20 39 8 73
15 101 20 246 45 564 174 794 322 88 57 215 152 215 161 0 4 -84 91 -187 194
l-186 186 -71 -48 c-122 -83 -287 -170 -381 -201 -22 -7 -45 -17 -51 -21 -19
-14 -228 -67 -321 -82 -161 -27 -432 -26 -568 0 -11 2 -36 7 -55 10 -184 31
-440 129 -601 229 -88 55 -154 100 -172 116 -11 10 -41 35 -67 56 l-49 38 211
212 211 211 -44 44 c-113 114 -175 198 -238 325 -38 76 -86 201 -95 246 -20
99 -26 133 -32 179 -16 136 -2 299 38 446 25 93 67 194 119 289 l42 75 -99 99
c-54 54 -102 99 -105 99 -4 0 -33 -44 -65 -97z m-924 -2597 c30 -4 88 -22 128
-41 276 -131 348 -488 144 -720 -174 -197 -495 -200 -674 -6 -83 89 -116 168
-123 290 -8 134 38 253 134 349 65 66 173 119 258 128 32 4 60 8 62 10 2 2 7
2 10 0 3 -2 31 -7 61 -10z"/>
<path d="M558 3082 c-34 -3 -38 -6 -39 -30 -4 -128 -1 -458 5 -502 45 -361
179 -719 382 -1021 46 -70 91 -133 100 -140 13 -11 42 14 204 177 l189 189
-60 90 c-64 96 -143 252 -179 350 -23 63 -69 216 -75 250 -14 77 -25 147 -31
190 -9 64 -10 324 -2 393 6 51 6 52 -20 53 -155 2 -445 3 -474 1z"/>
<path d="M4600 2341 c-48 -175 -130 -352 -231 -504 -65 -98 -140 -196 -151
-196 -4 -1 -99 91 -211 204 -113 113 -209 205 -214 205 -4 0 -28 -23 -52 -51
-56 -63 -172 -157 -260 -209 -292 -174 -667 -217 -993 -114 -76 24 -209 84
-284 129 l-31 19 -102 -101 -102 -101 59 -40 c153 -105 407 -205 577 -228 102
-14 141 -17 235 -17 164 -1 241 8 390 45 204 50 439 169 595 302 l39 33 398
-398 398 -398 -21 -37 c-29 -53 -58 -129 -65 -172 -18 -108 -3 -235 39 -334
47 -110 146 -212 263 -269 221 -108 467 -67 639 106 115 116 168 251 161 415
-10 225 -141 408 -357 497 -93 38 -254 42 -360 10 -41 -13 -95 -35 -120 -50
l-46 -27 -97 96 c-108 107 -106 99 -42 167 15 16 46 54 69 85 23 32 44 59 47
62 25 23 136 213 196 335 95 193 168 409 198 586 l6 36 -273 0 -273 -1 -24
-85z m650 -1293 c193 -61 329 -241 331 -438 1 -123 -45 -235 -136 -325 -61
-61 -138 -110 -188 -119 -14 -2 -31 -7 -37 -11 -18 -11 -163 -8 -210 4 -143
37 -268 150 -320 288 -41 111 -31 262 25 374 32 62 116 149 175 182 47 25 127
54 170 59 43 6 154 -2 190 -14z"/>
</g>
</svg>
